<svg xmlns="http://www.w3.org/2000/svg" xmlns:xlink="http://www.w3.org/1999/xlink" width="500" zoomAndPan="magnify" viewBox="0 0 375 374.999991" height="500" preserveAspectRatio="xMidYMid meet" version="1.0"><defs><g/><clipPath id="bb4a46ba8d"><path d="M 152.40625 107.617188 L 179 107.617188 L 179 182 L 152.40625 182 Z M 152.40625 107.617188 " clip-rule="nonzero"/></clipPath><clipPath id="79a7fed71f"><path d="M 182 122 L 210 122 L 210 196.117188 L 182 196.117188 Z M 182 122 " clip-rule="nonzero"/></clipPath><clipPath id="8db036a4c9"><path d="M 218 110 L 222.90625 110 L 222.90625 116 L 218 116 Z M 218 110 " clip-rule="nonzero"/></clipPath></defs><g clip-path="url(#bb4a46ba8d)"><path fill="#393536" d="M 152.429688 149.265625 L 152.429688 140.019531 C 154.308594 139.917969 155.726562 139.636719 156.683594 139.171875 C 157.636719 138.710938 158.460938 137.933594 159.15625 136.839844 C 159.851562 135.75 160.328125 134.382812 160.585938 132.738281 C 160.792969 131.503906 160.898438 129.359375 160.898438 126.304688 C 160.898438 121.320312 161.128906 117.847656 161.59375 115.882812 C 162.058594 113.917969 162.894531 112.335938 164.105469 111.144531 C 165.316406 109.949219 167.082031 109.003906 169.402344 108.3125 C 170.976562 107.847656 173.449219 107.617188 176.828125 107.617188 L 178.875 107.617188 L 178.875 116.828125 C 176.015625 116.828125 174.179688 116.988281 173.367188 117.308594 C 172.554688 117.628906 171.957031 118.117188 171.570312 118.769531 C 171.183594 119.425781 170.988281 120.550781 170.988281 122.144531 C 170.988281 123.761719 170.871094 126.832031 170.640625 131.351562 C 170.511719 133.894531 170.175781 135.957031 169.636719 137.535156 C 169.09375 139.113281 168.402344 140.417969 167.566406 141.445312 C 166.730469 142.472656 165.445312 143.539062 163.71875 144.644531 C 165.242188 145.515625 166.484375 146.539062 167.449219 147.707031 C 168.417969 148.875 169.15625 150.292969 169.675781 151.964844 C 170.191406 153.632812 170.523438 155.867188 170.679688 158.667969 C 170.859375 162.929688 170.949219 165.652344 170.949219 166.835938 C 170.949219 168.53125 171.15625 169.710938 171.570312 170.378906 C 171.980469 171.046875 172.605469 171.554688 173.445312 171.902344 C 174.28125 172.25 176.09375 172.421875 178.875 172.421875 L 178.875 181.667969 L 176.828125 181.667969 C 173.347656 181.667969 170.679688 181.390625 168.824219 180.839844 C 166.96875 180.289062 165.402344 179.371094 164.125 178.085938 C 162.847656 176.800781 161.992188 175.214844 161.554688 173.328125 C 161.117188 171.4375 160.898438 168.464844 160.898438 164.410156 C 160.898438 159.683594 160.691406 156.613281 160.277344 155.199219 C 159.710938 153.144531 158.855469 151.675781 157.707031 150.789062 C 156.558594 149.902344 154.800781 149.394531 152.429688 149.265625 " fill-opacity="1" fill-rule="nonzero"/></g><path fill="#eeb30d" d="M 211.089844 126.800781 L 205.035156 126.800781 L 205.035156 120.769531 L 211.089844 120.769531 L 211.089844 126.800781 " fill-opacity="1" fill-rule="nonzero"/><path fill="#eeb30d" d="M 209.660156 138.859375 L 205.035156 138.859375 L 205.035156 134.253906 L 209.660156 134.253906 L 209.660156 138.859375 " fill-opacity="1" fill-rule="nonzero"/><g clip-path="url(#79a7fed71f)"><path fill="#eeb30d" d="M 192.054688 131.410156 L 192.054688 126.800781 L 196.679688 126.800781 L 196.679688 131.410156 Z M 203.816406 152.949219 C 202.65625 152.0625 201.792969 150.59375 201.226562 148.539062 C 200.914062 147.378906 200.726562 145.15625 200.667969 141.875 L 196.679688 141.875 L 196.679688 135.84375 L 200.578125 135.84375 C 200.484375 133.519531 200.277344 131.707031 199.96875 130.410156 C 199.515625 128.523438 198.660156 126.929688 197.398438 125.632812 C 196.132812 124.335938 194.574219 123.417969 192.71875 122.878906 C 190.863281 122.339844 188.195312 122.070312 184.714844 122.070312 L 182.664062 122.070312 L 182.664062 131.277344 C 185.578125 131.277344 187.453125 131.449219 188.292969 131.796875 C 189.128906 132.144531 189.710938 132.636719 190.03125 133.28125 C 190.355469 133.921875 190.527344 135.207031 190.554688 137.132812 C 190.683594 143.246094 190.886719 147.203125 191.171875 149 C 191.609375 151.621094 192.433594 153.777344 193.648438 155.472656 C 194.523438 156.652344 195.914062 157.859375 197.824219 159.09375 C 196.351562 159.941406 195.148438 160.921875 194.207031 162.042969 C 193.265625 163.160156 192.511719 164.519531 191.945312 166.125 C 191.378906 167.730469 191.03125 169.867188 190.902344 172.539062 C 190.695312 176.957031 190.585938 179.949219 190.574219 181.515625 C 190.558594 183.082031 190.355469 184.195312 189.953125 184.851562 C 189.554688 185.503906 188.929688 186.003906 188.078125 186.351562 C 187.226562 186.699219 185.421875 186.871094 182.664062 186.871094 L 182.664062 196.121094 L 184.714844 196.121094 C 188.089844 196.121094 190.566406 195.886719 192.136719 195.425781 C 194.484375 194.730469 196.261719 193.789062 197.476562 192.59375 C 198.6875 191.398438 199.515625 189.8125 199.96875 187.835938 C 200.417969 185.855469 200.644531 182.378906 200.644531 177.394531 C 200.644531 174.363281 200.75 172.230469 200.953125 171 C 201.238281 169.355469 201.722656 167.988281 202.40625 166.894531 C 203.085938 165.804688 203.90625 165.027344 204.859375 164.566406 C 205.8125 164.101562 207.230469 163.820312 209.113281 163.71875 L 209.113281 154.46875 C 206.742188 154.34375 204.976562 153.835938 203.816406 152.949219 " fill-opacity="1" fill-rule="nonzero"/></g><g clip-path="url(#8db036a4c9)"><path fill="#eeb30d" d="M 222.890625 115.089844 L 218.265625 115.089844 L 218.265625 110.480469 L 222.890625 110.480469 L 222.890625 115.089844 " fill-opacity="1" fill-rule="nonzero"/></g><path fill="#eeb30d" d="M 199.703125 120.769531 L 191.074219 120.769531 L 191.074219 112.167969 L 199.703125 112.167969 L 199.703125 120.769531 " fill-opacity="1" fill-rule="nonzero"/><g fill="#393536" fill-opacity="1"><g transform="translate(60.023093, 236.859037)"><g><path d="M 12.828125 0.46875 C 11.148438 0.46875 9.597656 0.179688 8.171875 -0.390625 C 6.742188 -0.972656 5.507812 -1.785156 4.46875 -2.828125 C 3.4375 -3.867188 2.628906 -5.101562 2.046875 -6.53125 C 1.460938 -7.957031 1.171875 -9.507812 1.171875 -11.1875 C 1.171875 -12.863281 1.46875 -14.414062 2.0625 -15.84375 C 2.65625 -17.269531 3.46875 -18.507812 4.5 -19.5625 C 5.539062 -20.613281 6.769531 -21.429688 8.1875 -22.015625 C 9.601562 -22.609375 11.140625 -22.90625 12.796875 -22.90625 C 14.535156 -22.90625 16.15625 -22.570312 17.65625 -21.90625 C 19.15625 -21.238281 20.453125 -20.28125 21.546875 -19.03125 L 18.125 -15.71875 C 17.476562 -16.46875 16.710938 -17.0625 15.828125 -17.5 C 14.941406 -17.9375 13.976562 -18.15625 12.9375 -18.15625 C 11.96875 -18.15625 11.082031 -17.984375 10.28125 -17.640625 C 9.476562 -17.296875 8.78125 -16.816406 8.1875 -16.203125 C 7.59375 -15.585938 7.132812 -14.851562 6.8125 -14 C 6.488281 -13.15625 6.328125 -12.238281 6.328125 -11.25 C 6.328125 -10.25 6.492188 -9.320312 6.828125 -8.46875 C 7.171875 -7.625 7.632812 -6.890625 8.21875 -6.265625 C 8.8125 -5.640625 9.519531 -5.148438 10.34375 -4.796875 C 11.175781 -4.453125 12.082031 -4.28125 13.0625 -4.28125 C 14.132812 -4.28125 15.117188 -4.503906 16.015625 -4.953125 C 16.910156 -5.398438 17.671875 -6.003906 18.296875 -6.765625 L 21.703125 -3.515625 C 20.628906 -2.242188 19.335938 -1.257812 17.828125 -0.5625 C 16.328125 0.125 14.660156 0.46875 12.828125 0.46875 Z M 12.828125 0.46875 "/></g></g></g><g fill="#393536" fill-opacity="1"><g transform="translate(88.660017, 236.859037)"><g><path d="M 2.515625 -22.4375 L 7.40625 -22.4375 L 7.40625 -4.59375 L 15.171875 -4.59375 L 15.171875 0 L 2.515625 0 Z M 2.515625 -22.4375 "/></g></g></g><g fill="#393536" fill-opacity="1"><g transform="translate(111.100881, 236.859037)"><g><path d="M 2.515625 -22.4375 L 15.34375 -22.4375 L 15.34375 -17.859375 L 7.40625 -17.859375 L 7.40625 -13.734375 L 13.203125 -13.734375 L 13.203125 -9.140625 L 7.40625 -9.140625 L 7.40625 -4.59375 L 15.515625 -4.59375 L 15.515625 0 L 2.515625 0 Z M 2.515625 -22.4375 "/></g></g></g><g fill="#393536" fill-opacity="1"><g transform="translate(134.54651, 236.859037)"><g><path d="M 9.171875 -22.84375 L 12.296875 -22.84375 L 21.140625 0 L 15.984375 0 L 14.609375 -3.78125 L 6.875 -3.78125 L 5.53125 0 L 0.328125 0 Z M 13.09375 -8 L 10.75 -14.609375 L 8.375 -8 Z M 13.09375 -8 "/></g></g></g><g fill="#393536" fill-opacity="1"><g transform="translate(162.279147, 236.859037)"><g><path d="M 7.140625 -13.359375 L 7.140625 0 L 2.515625 0 L 2.515625 -22.84375 L 5.0625 -22.84375 L 17.59375 -9.078125 L 17.59375 -22.4375 L 22.203125 -22.4375 L 22.203125 0.40625 L 19.671875 0.40625 Z M 7.140625 -13.359375 "/></g></g></g><g fill="#393536" fill-opacity="1"><g transform="translate(193.260522, 236.859037)"><g/></g></g><g fill="#393536" fill-opacity="1"><g transform="translate(206.89294, 236.859037)"><g><path d="M 12.828125 0.46875 C 11.148438 0.46875 9.597656 0.179688 8.171875 -0.390625 C 6.742188 -0.972656 5.507812 -1.785156 4.46875 -2.828125 C 3.4375 -3.867188 2.628906 -5.101562 2.046875 -6.53125 C 1.460938 -7.957031 1.171875 -9.507812 1.171875 -11.1875 C 1.171875 -12.863281 1.46875 -14.414062 2.0625 -15.84375 C 2.65625 -17.269531 3.46875 -18.507812 4.5 -19.5625 C 5.539062 -20.613281 6.769531 -21.429688 8.1875 -22.015625 C 9.601562 -22.609375 11.140625 -22.90625 12.796875 -22.90625 C 14.535156 -22.90625 16.15625 -22.570312 17.65625 -21.90625 C 19.15625 -21.238281 20.453125 -20.28125 21.546875 -19.03125 L 18.125 -15.71875 C 17.476562 -16.46875 16.710938 -17.0625 15.828125 -17.5 C 14.941406 -17.9375 13.976562 -18.15625 12.9375 -18.15625 C 11.96875 -18.15625 11.082031 -17.984375 10.28125 -17.640625 C 9.476562 -17.296875 8.78125 -16.816406 8.1875 -16.203125 C 7.59375 -15.585938 7.132812 -14.851562 6.8125 -14 C 6.488281 -13.15625 6.328125 -12.238281 6.328125 -11.25 C 6.328125 -10.25 6.492188 -9.320312 6.828125 -8.46875 C 7.171875 -7.625 7.632812 -6.890625 8.21875 -6.265625 C 8.8125 -5.640625 9.519531 -5.148438 10.34375 -4.796875 C 11.175781 -4.453125 12.082031 -4.28125 13.0625 -4.28125 C 14.132812 -4.28125 15.117188 -4.503906 16.015625 -4.953125 C 16.910156 -5.398438 17.671875 -6.003906 18.296875 -6.765625 L 21.703125 -3.515625 C 20.628906 -2.242188 19.335938 -1.257812 17.828125 -0.5625 C 16.328125 0.125 14.660156 0.46875 12.828125 0.46875 Z M 12.828125 0.46875 "/></g></g></g><g fill="#393536" fill-opacity="1"><g transform="translate(235.529866, 236.859037)"><g><path d="M 12.765625 0.46875 C 11.109375 0.46875 9.578125 0.164062 8.171875 -0.4375 C 6.765625 -1.039062 5.539062 -1.863281 4.5 -2.90625 C 3.46875 -3.957031 2.65625 -5.191406 2.0625 -6.609375 C 1.46875 -8.035156 1.171875 -9.570312 1.171875 -11.21875 C 1.171875 -12.875 1.46875 -14.414062 2.0625 -15.84375 C 2.65625 -17.269531 3.46875 -18.507812 4.5 -19.5625 C 5.539062 -20.613281 6.765625 -21.429688 8.171875 -22.015625 C 9.578125 -22.609375 11.109375 -22.90625 12.765625 -22.90625 C 14.390625 -22.90625 15.910156 -22.609375 17.328125 -22.015625 C 18.753906 -21.429688 19.984375 -20.613281 21.015625 -19.5625 C 22.054688 -18.507812 22.875 -17.269531 23.46875 -15.84375 C 24.0625 -14.414062 24.359375 -12.875 24.359375 -11.21875 C 24.359375 -9.570312 24.0625 -8.035156 23.46875 -6.609375 C 22.875 -5.191406 22.054688 -3.957031 21.015625 -2.90625 C 19.984375 -1.863281 18.753906 -1.039062 17.328125 -0.4375 C 15.910156 0.164062 14.390625 0.46875 12.765625 0.46875 Z M 12.765625 -4.28125 C 13.703125 -4.28125 14.5625 -4.453125 15.34375 -4.796875 C 16.125 -5.148438 16.796875 -5.640625 17.359375 -6.265625 C 17.929688 -6.890625 18.378906 -7.625 18.703125 -8.46875 C 19.035156 -9.320312 19.203125 -10.238281 19.203125 -11.21875 C 19.203125 -12.207031 19.035156 -13.125 18.703125 -13.96875 C 18.378906 -14.820312 17.929688 -15.550781 17.359375 -16.15625 C 16.796875 -16.769531 16.125 -17.253906 15.34375 -17.609375 C 14.5625 -17.972656 13.703125 -18.15625 12.765625 -18.15625 C 11.828125 -18.15625 10.96875 -17.972656 10.1875 -17.609375 C 9.40625 -17.253906 8.726562 -16.769531 8.15625 -16.15625 C 7.582031 -15.550781 7.132812 -14.820312 6.8125 -13.96875 C 6.488281 -13.125 6.328125 -12.207031 6.328125 -11.21875 C 6.328125 -10.238281 6.488281 -9.320312 6.8125 -8.46875 C 7.132812 -7.625 7.582031 -6.894531 8.15625 -6.28125 C 8.726562 -5.664062 9.40625 -5.175781 10.1875 -4.8125 C 10.96875 -4.457031 11.828125 -4.28125 12.765625 -4.28125 Z M 12.765625 -4.28125 "/></g></g></g><g fill="#393536" fill-opacity="1"><g transform="translate(267.31504, 236.859037)"><g><path d="M 2.515625 -22.4375 L 11.390625 -22.4375 C 13.066406 -22.4375 14.613281 -22.148438 16.03125 -21.578125 C 17.445312 -21.015625 18.671875 -20.234375 19.703125 -19.234375 C 20.742188 -18.242188 21.5625 -17.0625 22.15625 -15.6875 C 22.75 -14.320312 23.046875 -12.832031 23.046875 -11.21875 C 23.046875 -9.613281 22.75 -8.128906 22.15625 -6.765625 C 21.5625 -5.398438 20.742188 -4.210938 19.703125 -3.203125 C 18.671875 -2.203125 17.445312 -1.414062 16.03125 -0.84375 C 14.613281 -0.28125 13.066406 0 11.390625 0 L 2.515625 0 Z M 11.421875 -4.59375 C 12.359375 -4.59375 13.21875 -4.757812 14 -5.09375 C 14.78125 -5.425781 15.460938 -5.890625 16.046875 -6.484375 C 16.628906 -7.078125 17.082031 -7.773438 17.40625 -8.578125 C 17.726562 -9.378906 17.890625 -10.257812 17.890625 -11.21875 C 17.890625 -12.175781 17.726562 -13.054688 17.40625 -13.859375 C 17.082031 -14.671875 16.628906 -15.367188 16.046875 -15.953125 C 15.460938 -16.546875 14.78125 -17.007812 14 -17.34375 C 13.21875 -17.6875 12.359375 -17.859375 11.421875 -17.859375 L 7.40625 -17.859375 L 7.40625 -4.59375 Z M 11.421875 -4.59375 "/></g></g></g><g fill="#393536" fill-opacity="1"><g transform="translate(297.794019, 236.859037)"><g><path d="M 2.515625 -22.4375 L 15.34375 -22.4375 L 15.34375 -17.859375 L 7.40625 -17.859375 L 7.40625 -13.734375 L 13.203125 -13.734375 L 13.203125 -9.140625 L 7.40625 -9.140625 L 7.40625 -4.59375 L 15.515625 -4.59375 L 15.515625 0 L 2.515625 0 Z M 2.515625 -22.4375 "/></g></g></g><g fill="#eeb30d" fill-opacity="1"><g transform="translate(135.80919, 264.771357)"><g><path d="M 0.328125 0 L 3.125 -7.59375 L 4.09375 -7.59375 L 6.875 0 L 5.90625 0 L 5.21875 -1.953125 L 1.984375 -1.953125 L 1.28125 0 Z M 2.25 -2.6875 L 4.9375 -2.6875 L 3.59375 -6.4375 Z M 2.25 -2.6875 "/></g></g></g><g fill="#eeb30d" fill-opacity="1"><g transform="translate(151.683564, 264.771357)"><g><path d="M 4.125 0.125 C 3.382812 0.125 2.742188 -0.0351562 2.203125 -0.359375 C 1.671875 -0.691406 1.253906 -1.148438 0.953125 -1.734375 C 0.660156 -2.328125 0.515625 -3.015625 0.515625 -3.796875 C 0.515625 -4.566406 0.660156 -5.242188 0.953125 -5.828125 C 1.253906 -6.421875 1.671875 -6.882812 2.203125 -7.21875 C 2.742188 -7.550781 3.382812 -7.71875 4.125 -7.71875 C 5 -7.71875 5.707031 -7.507812 6.25 -7.09375 C 6.789062 -6.675781 7.140625 -6.097656 7.296875 -5.359375 L 6.296875 -5.359375 C 6.171875 -5.828125 5.929688 -6.203125 5.578125 -6.484375 C 5.222656 -6.773438 4.738281 -6.921875 4.125 -6.921875 C 3.582031 -6.921875 3.109375 -6.796875 2.703125 -6.546875 C 2.304688 -6.296875 1.992188 -5.9375 1.765625 -5.46875 C 1.546875 -5 1.4375 -4.441406 1.4375 -3.796875 C 1.4375 -3.140625 1.546875 -2.578125 1.765625 -2.109375 C 1.992188 -1.648438 2.304688 -1.296875 2.703125 -1.046875 C 3.109375 -0.796875 3.582031 -0.671875 4.125 -0.671875 C 4.738281 -0.671875 5.222656 -0.804688 5.578125 -1.078125 C 5.929688 -1.359375 6.171875 -1.734375 6.296875 -2.203125 L 7.296875 -2.203125 C 7.140625 -1.472656 6.789062 -0.898438 6.25 -0.484375 C 5.707031 -0.078125 5 0.125 4.125 0.125 Z M 4.125 0.125 "/></g></g></g><g fill="#eeb30d" fill-opacity="1"><g transform="translate(168.16492, 264.771357)"><g><path d="M 0.328125 0 L 3.125 -7.59375 L 4.09375 -7.59375 L 6.875 0 L 5.90625 0 L 5.21875 -1.953125 L 1.984375 -1.953125 L 1.28125 0 Z M 2.25 -2.6875 L 4.9375 -2.6875 L 3.59375 -6.4375 Z M 2.25 -2.6875 "/></g></g></g><g fill="#eeb30d" fill-opacity="1"><g transform="translate(184.039293, 264.771357)"><g><path d="M 0.796875 0 L 0.796875 -7.59375 L 3.140625 -7.59375 C 4.472656 -7.59375 5.453125 -7.25 6.078125 -6.5625 C 6.710938 -5.882812 7.03125 -4.957031 7.03125 -3.78125 C 7.03125 -2.613281 6.710938 -1.691406 6.078125 -1.015625 C 5.453125 -0.335938 4.472656 0 3.140625 0 Z M 1.71875 -0.765625 L 3.109375 -0.765625 C 3.847656 -0.765625 4.4375 -0.882812 4.875 -1.125 C 5.3125 -1.363281 5.625 -1.707031 5.8125 -2.15625 C 6 -2.613281 6.09375 -3.15625 6.09375 -3.78125 C 6.09375 -4.414062 6 -4.957031 5.8125 -5.40625 C 5.625 -5.863281 5.3125 -6.210938 4.875 -6.453125 C 4.4375 -6.703125 3.847656 -6.828125 3.109375 -6.828125 L 1.71875 -6.828125 Z M 1.71875 -0.765625 "/></g></g></g><g fill="#eeb30d" fill-opacity="1"><g transform="translate(200.260519, 264.771357)"><g><path d="M 0.796875 0 L 0.796875 -7.59375 L 5.5 -7.59375 L 5.5 -6.84375 L 1.71875 -6.84375 L 1.71875 -4.203125 L 5.171875 -4.203125 L 5.171875 -3.453125 L 1.71875 -3.453125 L 1.71875 -0.75 L 5.5 -0.75 L 5.5 0 Z M 0.796875 0 "/></g></g></g><g fill="#eeb30d" fill-opacity="1"><g transform="translate(215.051003, 264.771357)"><g><path d="M 0.796875 0 L 0.796875 -7.59375 L 1.859375 -7.59375 L 4.59375 -2.296875 L 7.3125 -7.59375 L 8.375 -7.59375 L 8.375 0 L 7.46875 0 L 7.46875 -5.96875 L 4.9375 -1.078125 L 4.25 -1.078125 L 1.71875 -5.953125 L 1.71875 0 Z M 0.796875 0 "/></g></g></g><g fill="#eeb30d" fill-opacity="1"><g transform="translate(232.908912, 264.771357)"><g><path d="M 2.6875 0 L 2.6875 -2.890625 L 0.21875 -7.59375 L 1.25 -7.59375 L 3.140625 -3.75 L 5.046875 -7.59375 L 6.0625 -7.59375 L 3.59375 -2.890625 L 3.59375 0 Z M 2.6875 0 "/></g></g></g></svg>