<svg xmlns="http://www.w3.org/2000/svg" xmlns:xlink="http://www.w3.org/1999/xlink" width="19.588" zoomAndPan="magnify" viewBox="0 0 375 374.999991" height="20.992" preserveAspectRatio="xMidYMid meet" version="1.0"><path fill="#000000" d="M -0.898438 12.574219 C -0.898438 5.132812 5.132812 -0.898438 12.574219 -0.898438 L 66.472656 -0.898438 C 73.914062 -0.898438 79.945312 5.132812 79.945312 12.574219 C 79.945312 20.015625 73.914062 26.050781 66.472656 26.050781 L 26.050781 26.050781 L 26.050781 358.402344 L 358.402344 358.402344 L 358.402344 26.050781 L 138.332031 26.050781 C 130.890625 26.050781 124.859375 20.015625 124.859375 12.574219 C 124.859375 5.132812 130.890625 -0.898438 138.332031 -0.898438 L 371.878906 -0.898438 C 379.320312 -0.898438 385.351562 5.132812 385.351562 12.574219 L 385.351562 371.878906 C 385.351562 379.320312 379.320312 385.351562 371.878906 385.351562 L 12.574219 385.351562 C 5.132812 385.351562 -0.898438 379.320312 -0.898438 371.878906 Z M -0.898438 12.574219 " fill-opacity="1" fill-rule="evenodd"/><path fill="#000000" d="M 273.070312 205.699219 C 265.628906 205.699219 259.597656 211.734375 259.597656 219.175781 L 259.597656 228.15625 C 259.597656 235.597656 265.628906 241.628906 273.070312 241.628906 L 300.015625 241.628906 C 322.339844 241.628906 340.4375 259.730469 340.4375 282.050781 L 340.4375 291.035156 C 340.4375 313.359375 322.339844 331.457031 300.015625 331.457031 L 246.121094 331.457031 C 238.679688 331.457031 232.648438 325.421875 232.648438 317.984375 C 232.648438 310.542969 238.679688 304.507812 246.121094 304.507812 L 300.015625 304.507812 C 307.457031 304.507812 313.492188 298.476562 313.492188 291.035156 L 313.492188 282.050781 C 313.492188 274.609375 307.457031 268.578125 300.015625 268.578125 L 273.070312 268.578125 C 250.746094 268.578125 232.648438 250.480469 232.648438 228.15625 L 232.648438 219.175781 C 232.648438 196.851562 250.746094 178.753906 273.070312 178.753906 L 326.964844 178.753906 C 334.40625 178.753906 340.4375 184.785156 340.4375 192.226562 C 340.4375 199.667969 334.40625 205.699219 326.964844 205.699219 Z M 273.070312 205.699219 " fill-opacity="1" fill-rule="evenodd"/><path fill="#000000" d="M 201.210938 178.753906 C 208.652344 178.753906 214.683594 184.785156 214.683594 192.226562 L 214.683594 291.035156 C 214.683594 313.359375 196.585938 331.457031 174.261719 331.457031 L 147.3125 331.457031 C 124.988281 331.457031 106.890625 313.359375 106.890625 291.035156 L 106.890625 282.050781 C 106.890625 274.609375 112.925781 268.578125 120.367188 268.578125 C 127.808594 268.578125 133.839844 274.609375 133.839844 282.050781 L 133.839844 291.035156 C 133.839844 298.476562 139.871094 304.507812 147.3125 304.507812 L 174.261719 304.507812 C 181.703125 304.507812 187.734375 298.476562 187.734375 291.035156 L 187.734375 192.226562 C 187.734375 184.785156 193.769531 178.753906 201.210938 178.753906 Z M 201.210938 178.753906 " fill-opacity="1" fill-rule="evenodd"/></svg>
