<svg xmlns="http://www.w3.org/2000/svg" xmlns:xlink="http://www.w3.org/1999/xlink" width="19.588" zoomAndPan="magnify" viewBox="0 0 375 412.499988" height="20.992" preserveAspectRatio="xMidYMid meet" version="1.0"><defs><clipPath id="28e98a293f"><path d="M 8.839844 0 L 366.160156 0 L 366.160156 411.855469 L 8.839844 411.855469 Z M 8.839844 0 " clip-rule="nonzero"/></clipPath></defs><path fill="#000000" d="M 263.085938 274.523438 C 262.183594 274.523438 261.289062 274.433594 260.402344 274.257812 C 259.519531 274.082031 258.660156 273.824219 257.824219 273.476562 C 256.992188 273.132812 256.199219 272.710938 255.449219 272.207031 C 254.699219 271.707031 254.003906 271.136719 253.367188 270.5 C 252.730469 269.863281 252.160156 269.167969 251.660156 268.417969 C 251.15625 267.667969 250.734375 266.878906 250.386719 266.046875 C 250.042969 265.210938 249.78125 264.351562 249.605469 263.46875 C 249.429688 262.585938 249.34375 261.691406 249.34375 260.789062 L 249.34375 247.054688 C 249.34375 246.15625 249.296875 245.257812 249.210938 244.363281 C 249.121094 243.46875 248.988281 242.582031 248.8125 241.699219 C 248.636719 240.816406 248.421875 239.945312 248.160156 239.082031 C 247.898438 238.222656 247.59375 237.375 247.25 236.546875 C 246.90625 235.714844 246.519531 234.902344 246.097656 234.109375 C 245.671875 233.316406 245.210938 232.542969 244.710938 231.796875 C 244.210938 231.046875 243.675781 230.328125 243.101562 229.632812 C 242.53125 228.9375 241.929688 228.269531 241.292969 227.632812 C 240.65625 227 239.988281 226.394531 239.292969 225.824219 C 238.597656 225.253906 237.875 224.71875 237.125 224.21875 C 236.378906 223.71875 235.605469 223.257812 234.8125 222.832031 C 234.019531 222.410156 233.207031 222.023438 232.375 221.679688 C 231.542969 221.335938 230.695312 221.035156 229.835938 220.773438 C 228.972656 220.511719 228.101562 220.292969 227.21875 220.117188 C 226.335938 219.941406 225.445312 219.808594 224.550781 219.722656 C 223.65625 219.632812 222.757812 219.589844 221.855469 219.589844 C 221.40625 219.589844 220.957031 219.632812 220.515625 219.722656 C 220.074219 219.808594 219.644531 219.941406 219.226562 220.113281 C 218.808594 220.285156 218.414062 220.496094 218.039062 220.746094 C 217.664062 220.996094 217.316406 221.28125 216.996094 221.601562 C 216.679688 221.917969 216.394531 222.265625 216.144531 222.640625 C 215.894531 223.015625 215.679688 223.410156 215.507812 223.828125 C 215.335938 224.246094 215.207031 224.675781 215.117188 225.117188 C 215.03125 225.558594 214.984375 226.003906 214.984375 226.457031 C 214.984375 226.90625 215.03125 227.355469 215.117188 227.796875 C 215.207031 228.238281 215.335938 228.667969 215.507812 229.085938 C 215.679688 229.5 215.894531 229.894531 216.144531 230.269531 C 216.394531 230.644531 216.679688 230.992188 216.996094 231.3125 C 217.316406 231.628906 217.664062 231.914062 218.039062 232.164062 C 218.414062 232.417969 218.808594 232.628906 219.226562 232.800781 C 219.644531 232.972656 220.074219 233.101562 220.515625 233.191406 C 220.957031 233.277344 221.40625 233.324219 221.855469 233.324219 C 222.757812 233.324219 223.652344 233.410156 224.539062 233.585938 C 225.421875 233.761719 226.28125 234.023438 227.117188 234.367188 C 227.949219 234.714844 228.742188 235.136719 229.492188 235.636719 C 230.242188 236.136719 230.9375 236.707031 231.574219 237.34375 C 232.210938 237.984375 232.78125 238.675781 233.285156 239.425781 C 233.785156 240.175781 234.207031 240.96875 234.554688 241.800781 C 234.898438 242.632812 235.160156 243.492188 235.335938 244.378906 C 235.511719 245.261719 235.597656 246.15625 235.597656 247.054688 L 235.597656 260.789062 C 235.597656 262.738281 235.804688 264.667969 236.214844 266.574219 C 236.625 268.480469 237.234375 270.320312 238.035156 272.097656 C 238.839844 273.871094 239.824219 275.542969 240.984375 277.109375 C 242.148438 278.675781 243.460938 280.105469 244.925781 281.390625 C 243.460938 282.675781 242.148438 284.101562 240.984375 285.667969 C 239.824219 287.234375 238.839844 288.90625 238.035156 290.683594 C 237.234375 292.460938 236.625 294.300781 236.214844 296.207031 C 235.804688 298.113281 235.597656 300.039062 235.597656 301.988281 L 235.597656 315.722656 C 235.597656 316.625 235.511719 317.519531 235.335938 318.402344 C 235.160156 319.285156 234.898438 320.144531 234.554688 320.980469 C 234.207031 321.8125 233.785156 322.601562 233.285156 323.351562 C 232.78125 324.101562 232.210938 324.796875 231.574219 325.433594 C 230.9375 326.070312 230.242188 326.640625 229.492188 327.140625 C 228.742188 327.644531 227.949219 328.066406 227.117188 328.410156 C 226.28125 328.757812 225.421875 329.015625 224.539062 329.191406 C 223.652344 329.367188 222.757812 329.457031 221.855469 329.457031 C 221.40625 329.457031 220.957031 329.5 220.515625 329.589844 C 220.074219 329.675781 219.644531 329.804688 219.226562 329.980469 C 218.808594 330.152344 218.414062 330.363281 218.039062 330.613281 C 217.664062 330.863281 217.316406 331.148438 216.996094 331.46875 C 216.679688 331.785156 216.394531 332.132812 216.144531 332.507812 C 215.894531 332.882812 215.679688 333.277344 215.507812 333.695312 C 215.335938 334.113281 215.207031 334.542969 215.117188 334.984375 C 215.03125 335.425781 214.984375 335.871094 214.984375 336.324219 C 214.984375 336.773438 215.03125 337.21875 215.117188 337.664062 C 215.207031 338.105469 215.335938 338.535156 215.507812 338.949219 C 215.679688 339.367188 215.894531 339.761719 216.144531 340.136719 C 216.394531 340.511719 216.679688 340.859375 216.996094 341.179688 C 217.316406 341.496094 217.664062 341.78125 218.039062 342.03125 C 218.414062 342.28125 218.808594 342.496094 219.226562 342.667969 C 219.644531 342.839844 220.074219 342.96875 220.515625 343.058594 C 220.957031 343.144531 221.40625 343.191406 221.855469 343.191406 C 222.757812 343.191406 223.65625 343.144531 224.550781 343.058594 C 225.445312 342.96875 226.335938 342.835938 227.21875 342.660156 C 228.101562 342.488281 228.972656 342.269531 229.835938 342.007812 C 230.695312 341.746094 231.542969 341.441406 232.375 341.097656 C 233.207031 340.753906 234.019531 340.371094 234.8125 339.945312 C 235.605469 339.523438 236.378906 339.058594 237.125 338.5625 C 237.875 338.0625 238.597656 337.527344 239.292969 336.953125 C 239.988281 336.382812 240.65625 335.78125 241.292969 335.144531 C 241.929688 334.507812 242.53125 333.84375 243.101562 333.148438 C 243.675781 332.453125 244.210938 331.730469 244.710938 330.984375 C 245.210938 330.234375 245.671875 329.464844 246.097656 328.671875 C 246.519531 327.878906 246.90625 327.066406 247.25 326.234375 C 247.59375 325.402344 247.898438 324.558594 248.160156 323.695312 C 248.421875 322.835938 248.636719 321.964844 248.8125 321.082031 C 248.988281 320.199219 249.121094 319.308594 249.210938 318.414062 C 249.296875 317.519531 249.34375 316.621094 249.34375 315.722656 L 249.34375 301.988281 C 249.34375 301.089844 249.429688 300.195312 249.605469 299.308594 C 249.78125 298.425781 250.042969 297.566406 250.386719 296.734375 C 250.734375 295.902344 251.15625 295.109375 251.660156 294.359375 C 252.160156 293.609375 252.730469 292.917969 253.367188 292.277344 C 254.003906 291.640625 254.699219 291.070312 255.449219 290.570312 C 256.199219 290.070312 256.992188 289.648438 257.824219 289.300781 C 258.660156 288.957031 259.519531 288.695312 260.402344 288.519531 C 261.289062 288.34375 262.183594 288.257812 263.085938 288.257812 C 263.535156 288.257812 263.984375 288.210938 264.425781 288.125 C 264.867188 288.035156 265.296875 287.90625 265.714844 287.734375 C 266.132812 287.5625 266.527344 287.347656 266.902344 287.097656 C 267.277344 286.847656 267.625 286.5625 267.945312 286.246094 C 268.261719 285.925781 268.546875 285.578125 268.796875 285.203125 C 269.050781 284.828125 269.261719 284.433594 269.433594 284.015625 C 269.605469 283.601562 269.734375 283.171875 269.824219 282.730469 C 269.914062 282.285156 269.957031 281.839844 269.957031 281.390625 C 269.957031 280.9375 269.914062 280.492188 269.824219 280.050781 C 269.734375 279.609375 269.605469 279.179688 269.433594 278.761719 C 269.261719 278.34375 269.050781 277.949219 268.796875 277.574219 C 268.546875 277.199219 268.261719 276.851562 267.945312 276.535156 C 267.625 276.214844 267.277344 275.929688 266.902344 275.679688 C 266.527344 275.429688 266.132812 275.21875 265.714844 275.046875 C 265.296875 274.875 264.867188 274.742188 264.425781 274.65625 C 263.984375 274.566406 263.535156 274.523438 263.085938 274.523438 Z M 263.085938 274.523438 " fill-opacity="1" fill-rule="nonzero"/><path fill="#000000" d="M 111.914062 247.054688 C 111.914062 246.15625 112.003906 245.261719 112.179688 244.378906 C 112.355469 243.492188 112.617188 242.632812 112.960938 241.800781 C 113.304688 240.96875 113.730469 240.175781 114.230469 239.425781 C 114.734375 238.675781 115.300781 237.984375 115.941406 237.34375 C 116.578125 236.707031 117.273438 236.136719 118.023438 235.636719 C 118.773438 235.136719 119.566406 234.714844 120.398438 234.367188 C 121.230469 234.023438 122.089844 233.761719 122.976562 233.585938 C 123.863281 233.410156 124.753906 233.324219 125.65625 233.324219 C 126.109375 233.324219 126.554688 233.277344 127 233.191406 C 127.441406 233.101562 127.871094 232.972656 128.289062 232.800781 C 128.703125 232.628906 129.101562 232.417969 129.476562 232.164062 C 129.851562 231.914062 130.199219 231.628906 130.515625 231.3125 C 130.835938 230.992188 131.121094 230.644531 131.371094 230.269531 C 131.621094 229.894531 131.832031 229.5 132.007812 229.085938 C 132.179688 228.667969 132.308594 228.238281 132.398438 227.796875 C 132.484375 227.355469 132.527344 226.90625 132.527344 226.457031 C 132.527344 226.003906 132.484375 225.558594 132.398438 225.117188 C 132.308594 224.675781 132.179688 224.246094 132.007812 223.828125 C 131.832031 223.410156 131.621094 223.015625 131.371094 222.640625 C 131.121094 222.265625 130.835938 221.917969 130.515625 221.601562 C 130.199219 221.28125 129.851562 220.996094 129.476562 220.746094 C 129.101562 220.496094 128.703125 220.285156 128.289062 220.113281 C 127.871094 219.941406 127.441406 219.808594 127 219.722656 C 126.554688 219.632812 126.109375 219.589844 125.65625 219.589844 C 124.757812 219.589844 123.859375 219.632812 122.964844 219.722656 C 122.066406 219.808594 121.179688 219.941406 120.296875 220.117188 C 119.414062 220.292969 118.539062 220.511719 117.679688 220.773438 C 116.816406 221.035156 115.972656 221.335938 115.140625 221.679688 C 114.308594 222.023438 113.496094 222.410156 112.703125 222.832031 C 111.90625 223.257812 111.136719 223.71875 110.386719 224.21875 C 109.640625 224.71875 108.917969 225.253906 108.222656 225.824219 C 107.523438 226.394531 106.859375 227 106.222656 227.632812 C 105.585938 228.269531 104.980469 228.9375 104.410156 229.632812 C 103.839844 230.328125 103.304688 231.046875 102.804688 231.796875 C 102.304688 232.542969 101.84375 233.316406 101.417969 234.109375 C 100.992188 234.902344 100.609375 235.714844 100.265625 236.546875 C 99.921875 237.375 99.617188 238.222656 99.355469 239.082031 C 99.09375 239.945312 98.875 240.816406 98.699219 241.699219 C 98.523438 242.582031 98.394531 243.46875 98.304688 244.363281 C 98.214844 245.257812 98.171875 246.15625 98.171875 247.054688 L 98.171875 260.789062 C 98.171875 261.691406 98.085938 262.585938 97.910156 263.46875 C 97.730469 264.351562 97.472656 265.210938 97.125 266.046875 C 96.78125 266.878906 96.359375 267.667969 95.855469 268.417969 C 95.355469 269.167969 94.785156 269.863281 94.148438 270.5 C 93.507812 271.136719 92.816406 271.707031 92.066406 272.207031 C 91.3125 272.710938 90.523438 273.132812 89.6875 273.476562 C 88.855469 273.824219 87.996094 274.082031 87.109375 274.257812 C 86.226562 274.433594 85.332031 274.523438 84.429688 274.523438 C 83.976562 274.523438 83.53125 274.566406 83.089844 274.65625 C 82.648438 274.742188 82.21875 274.875 81.800781 275.046875 C 81.382812 275.21875 80.988281 275.429688 80.613281 275.679688 C 80.238281 275.929688 79.890625 276.214844 79.570312 276.535156 C 79.25 276.851562 78.96875 277.199219 78.714844 277.574219 C 78.464844 277.949219 78.253906 278.34375 78.082031 278.761719 C 77.910156 279.179688 77.777344 279.609375 77.691406 280.050781 C 77.601562 280.492188 77.558594 280.9375 77.558594 281.390625 C 77.558594 281.839844 77.601562 282.285156 77.691406 282.730469 C 77.777344 283.171875 77.910156 283.601562 78.082031 284.015625 C 78.253906 284.433594 78.464844 284.828125 78.714844 285.203125 C 78.96875 285.578125 79.25 285.925781 79.570312 286.246094 C 79.890625 286.5625 80.238281 286.847656 80.613281 287.097656 C 80.988281 287.347656 81.382812 287.5625 81.800781 287.734375 C 82.21875 287.90625 82.648438 288.035156 83.089844 288.125 C 83.53125 288.210938 83.976562 288.257812 84.429688 288.257812 C 85.332031 288.257812 86.226562 288.34375 87.109375 288.519531 C 87.996094 288.695312 88.855469 288.957031 89.6875 289.300781 C 90.523438 289.648438 91.3125 290.070312 92.066406 290.570312 C 92.816406 291.070312 93.507812 291.640625 94.148438 292.277344 C 94.785156 292.917969 95.355469 293.609375 95.855469 294.359375 C 96.359375 295.109375 96.78125 295.902344 97.125 296.734375 C 97.472656 297.566406 97.730469 298.425781 97.910156 299.308594 C 98.085938 300.195312 98.171875 301.089844 98.171875 301.988281 L 98.171875 315.722656 C 98.171875 316.621094 98.214844 317.519531 98.304688 318.414062 C 98.394531 319.308594 98.523438 320.199219 98.699219 321.082031 C 98.875 321.964844 99.09375 322.835938 99.355469 323.695312 C 99.617188 324.558594 99.921875 325.402344 100.265625 326.234375 C 100.609375 327.066406 100.992188 327.878906 101.417969 328.671875 C 101.84375 329.464844 102.304688 330.234375 102.804688 330.984375 C 103.304688 331.730469 103.839844 332.453125 104.410156 333.148438 C 104.980469 333.84375 105.585938 334.507812 106.222656 335.144531 C 106.859375 335.78125 107.523438 336.382812 108.222656 336.953125 C 108.917969 337.527344 109.640625 338.0625 110.386719 338.5625 C 111.136719 339.058594 111.90625 339.523438 112.703125 339.945312 C 113.496094 340.371094 114.308594 340.753906 115.140625 341.097656 C 115.972656 341.441406 116.816406 341.746094 117.679688 342.007812 C 118.539062 342.269531 119.414062 342.488281 120.296875 342.660156 C 121.179688 342.835938 122.066406 342.96875 122.964844 343.058594 C 123.859375 343.144531 124.757812 343.191406 125.65625 343.191406 C 126.109375 343.191406 126.554688 343.144531 127 343.058594 C 127.441406 342.96875 127.871094 342.839844 128.289062 342.667969 C 128.703125 342.496094 129.101562 342.28125 129.476562 342.03125 C 129.851562 341.78125 130.199219 341.496094 130.515625 341.179688 C 130.835938 340.859375 131.121094 340.511719 131.371094 340.136719 C 131.621094 339.761719 131.832031 339.367188 132.007812 338.949219 C 132.179688 338.535156 132.308594 338.105469 132.398438 337.664062 C 132.484375 337.21875 132.527344 336.773438 132.527344 336.324219 C 132.527344 335.871094 132.484375 335.425781 132.398438 334.984375 C 132.308594 334.542969 132.179688 334.113281 132.007812 333.695312 C 131.832031 333.277344 131.621094 332.882812 131.371094 332.507812 C 131.121094 332.132812 130.835938 331.785156 130.515625 331.46875 C 130.199219 331.148438 129.851562 330.863281 129.476562 330.613281 C 129.101562 330.363281 128.703125 330.152344 128.289062 329.980469 C 127.871094 329.804688 127.441406 329.675781 127 329.589844 C 126.554688 329.5 126.109375 329.457031 125.65625 329.457031 C 124.753906 329.457031 123.863281 329.367188 122.976562 329.191406 C 122.089844 329.015625 121.230469 328.757812 120.398438 328.410156 C 119.566406 328.066406 118.773438 327.644531 118.023438 327.140625 C 117.273438 326.640625 116.578125 326.070312 115.941406 325.433594 C 115.300781 324.796875 114.734375 324.101562 114.230469 323.351562 C 113.730469 322.601562 113.304688 321.8125 112.960938 320.980469 C 112.617188 320.144531 112.355469 319.285156 112.179688 318.402344 C 112.003906 317.519531 111.914062 316.625 111.914062 315.722656 L 111.914062 301.988281 C 111.917969 300.039062 111.710938 298.113281 111.300781 296.207031 C 110.890625 294.300781 110.28125 292.460938 109.476562 290.683594 C 108.671875 288.90625 107.691406 287.234375 106.527344 285.667969 C 105.367188 284.101562 104.054688 282.675781 102.585938 281.390625 C 104.054688 280.101562 105.367188 278.675781 106.527344 277.109375 C 107.691406 275.542969 108.671875 273.871094 109.476562 272.097656 C 110.28125 270.320312 110.890625 268.480469 111.300781 266.574219 C 111.710938 264.667969 111.917969 262.738281 111.914062 260.789062 Z M 111.914062 247.054688 " fill-opacity="1" fill-rule="nonzero"/><g clip-path="url(#28e98a293f)"><path fill="#000000" d="M 359.285156 -0.144531 L 43.203125 -0.144531 C 42.75 -0.144531 42.304688 -0.101562 41.859375 -0.0117188 C 41.417969 0.0742188 40.988281 0.207031 40.570312 0.378906 C 40.15625 0.550781 39.757812 0.761719 39.382812 1.011719 C 39.007812 1.265625 38.660156 1.546875 38.34375 1.867188 C 38.023438 2.1875 37.738281 2.53125 37.488281 2.90625 C 37.238281 3.28125 37.027344 3.679688 36.851562 4.09375 C 36.679688 4.511719 36.550781 4.941406 36.460938 5.382812 C 36.375 5.824219 36.332031 6.273438 36.332031 6.722656 L 36.332031 27.324219 L 15.714844 27.324219 C 15.265625 27.324219 14.816406 27.367188 14.375 27.453125 C 13.933594 27.542969 13.503906 27.671875 13.085938 27.84375 C 12.667969 28.019531 12.273438 28.230469 11.898438 28.480469 C 11.523438 28.730469 11.175781 29.015625 10.855469 29.332031 C 10.539062 29.652344 10.253906 30 10.003906 30.375 C 9.753906 30.75 9.539062 31.144531 9.367188 31.5625 C 9.195312 31.976562 9.066406 32.40625 8.976562 32.851562 C 8.890625 33.292969 8.84375 33.738281 8.84375 34.1875 L 8.84375 404.988281 C 8.84375 405.441406 8.890625 405.886719 8.976562 406.328125 C 9.066406 406.773438 9.195312 407.199219 9.367188 407.617188 C 9.539062 408.035156 9.753906 408.429688 10.003906 408.804688 C 10.253906 409.179688 10.539062 409.527344 10.855469 409.84375 C 11.175781 410.164062 11.523438 410.449219 11.898438 410.699219 C 12.273438 410.949219 12.667969 411.160156 13.085938 411.332031 C 13.503906 411.507812 13.933594 411.636719 14.375 411.722656 C 14.816406 411.8125 15.265625 411.855469 15.714844 411.855469 L 331.796875 411.855469 C 332.25 411.855469 332.695312 411.8125 333.140625 411.722656 C 333.582031 411.636719 334.011719 411.507812 334.429688 411.332031 C 334.84375 411.160156 335.242188 410.949219 335.617188 410.699219 C 335.992188 410.449219 336.339844 410.164062 336.65625 409.84375 C 336.976562 409.527344 337.261719 409.179688 337.511719 408.804688 C 337.761719 408.429688 337.972656 408.035156 338.148438 407.617188 C 338.320312 407.199219 338.449219 406.773438 338.539062 406.328125 C 338.625 405.886719 338.667969 405.441406 338.667969 404.988281 L 338.667969 384.390625 L 359.285156 384.390625 C 359.734375 384.390625 360.183594 384.347656 360.625 384.257812 C 361.066406 384.167969 361.496094 384.039062 361.914062 383.867188 C 362.332031 383.695312 362.726562 383.484375 363.101562 383.234375 C 363.476562 382.980469 363.824219 382.699219 364.144531 382.378906 C 364.460938 382.058594 364.746094 381.714844 364.996094 381.339844 C 365.246094 380.964844 365.460938 380.566406 365.632812 380.152344 C 365.804688 379.734375 365.933594 379.304688 366.023438 378.863281 C 366.109375 378.421875 366.15625 377.972656 366.15625 377.523438 L 366.15625 6.722656 C 366.15625 6.273438 366.109375 5.824219 366.023438 5.382812 C 365.933594 4.941406 365.804688 4.511719 365.632812 4.09375 C 365.460938 3.679688 365.246094 3.28125 364.996094 2.90625 C 364.746094 2.53125 364.460938 2.1875 364.144531 1.867188 C 363.824219 1.546875 363.476562 1.265625 363.101562 1.011719 C 362.726562 0.761719 362.332031 0.550781 361.914062 0.378906 C 361.496094 0.207031 361.066406 0.0742188 360.625 -0.0117188 C 360.183594 -0.101562 359.734375 -0.144531 359.285156 -0.144531 Z M 43.203125 89.121094 C 43.203125 88 43.257812 86.875 43.367188 85.757812 C 43.476562 84.636719 43.640625 83.527344 43.863281 82.425781 C 44.082031 81.320312 44.355469 80.230469 44.679688 79.15625 C 45.007812 78.082031 45.386719 77.023438 45.816406 75.984375 C 46.246094 74.945312 46.726562 73.929688 47.257812 72.9375 C 47.789062 71.945312 48.367188 70.984375 48.992188 70.046875 C 49.617188 69.113281 50.285156 68.210938 51 67.34375 C 51.714844 66.472656 52.46875 65.640625 53.265625 64.84375 C 54.058594 64.050781 54.894531 63.296875 55.761719 62.582031 C 56.632812 61.871094 57.535156 61.199219 58.46875 60.574219 C 59.40625 59.949219 60.371094 59.375 61.363281 58.84375 C 62.355469 58.3125 63.371094 57.832031 64.410156 57.402344 C 65.449219 56.972656 66.507812 56.59375 67.585938 56.269531 C 68.660156 55.941406 69.753906 55.667969 70.855469 55.449219 C 71.960938 55.230469 73.070312 55.066406 74.191406 54.953125 C 75.308594 54.84375 76.433594 54.789062 77.558594 54.789062 L 91.300781 54.789062 C 91.753906 54.789062 92.199219 54.832031 92.640625 54.921875 C 93.085938 55.007812 93.511719 55.140625 93.929688 55.3125 C 94.347656 55.484375 94.742188 55.695312 95.117188 55.945312 C 95.492188 56.195312 95.839844 56.480469 96.160156 56.800781 C 96.480469 57.121094 96.761719 57.464844 97.015625 57.839844 C 97.265625 58.214844 97.476562 58.613281 97.648438 59.027344 C 97.820312 59.445312 97.953125 59.875 98.039062 60.316406 C 98.128906 60.757812 98.171875 61.207031 98.171875 61.65625 C 98.171875 62.105469 98.128906 62.554688 98.039062 62.996094 C 97.953125 63.4375 97.820312 63.867188 97.648438 64.285156 C 97.476562 64.699219 97.265625 65.097656 97.015625 65.472656 C 96.761719 65.847656 96.480469 66.191406 96.160156 66.511719 C 95.839844 66.832031 95.492188 67.113281 95.117188 67.367188 C 94.742188 67.617188 94.347656 67.828125 93.929688 68 C 93.511719 68.171875 93.085938 68.304688 92.640625 68.390625 C 92.199219 68.480469 91.753906 68.523438 91.300781 68.523438 L 77.558594 68.523438 C 76.882812 68.523438 76.210938 68.558594 75.539062 68.628906 C 74.867188 68.695312 74.203125 68.796875 73.539062 68.929688 C 72.878906 69.0625 72.226562 69.226562 71.582031 69.421875 C 70.9375 69.621094 70.300781 69.847656 69.679688 70.105469 C 69.054688 70.367188 68.449219 70.65625 67.851562 70.972656 C 67.257812 71.292969 66.679688 71.636719 66.121094 72.011719 C 65.558594 72.386719 65.019531 72.789062 64.496094 73.21875 C 63.976562 73.644531 63.476562 74.097656 63 74.574219 C 62.523438 75.050781 62.070312 75.550781 61.640625 76.070312 C 61.214844 76.589844 60.8125 77.132812 60.4375 77.691406 C 60.0625 78.253906 59.714844 78.828125 59.394531 79.421875 C 59.078125 80.019531 58.789062 80.625 58.53125 81.25 C 58.269531 81.871094 58.042969 82.503906 57.84375 83.148438 C 57.648438 83.792969 57.484375 84.445312 57.351562 85.109375 C 57.21875 85.769531 57.117188 86.433594 57.050781 87.105469 C 56.980469 87.777344 56.945312 88.449219 56.945312 89.121094 L 56.945312 102.855469 C 56.945312 103.53125 56.980469 104.203125 57.050781 104.875 C 57.117188 105.542969 57.21875 106.210938 57.351562 106.871094 C 57.484375 107.53125 57.648438 108.183594 57.84375 108.828125 C 58.042969 109.472656 58.269531 110.109375 58.53125 110.730469 C 58.789062 111.351562 59.078125 111.960938 59.394531 112.554688 C 59.714844 113.148438 60.0625 113.726562 60.4375 114.285156 C 60.8125 114.847656 61.214844 115.386719 61.640625 115.910156 C 62.070312 116.429688 62.523438 116.929688 63 117.40625 C 63.476562 117.882812 63.976562 118.332031 64.496094 118.761719 C 65.019531 119.191406 65.558594 119.589844 66.121094 119.964844 C 66.679688 120.339844 67.257812 120.6875 67.851562 121.007812 C 68.449219 121.324219 69.054688 121.613281 69.679688 121.871094 C 70.300781 122.132812 70.9375 122.359375 71.582031 122.554688 C 72.226562 122.753906 72.878906 122.917969 73.539062 123.050781 C 74.203125 123.183594 74.867188 123.285156 75.539062 123.351562 C 76.210938 123.417969 76.882812 123.453125 77.558594 123.457031 L 91.300781 123.457031 C 91.753906 123.457031 92.199219 123.5 92.640625 123.589844 C 93.085938 123.675781 93.511719 123.804688 93.929688 123.980469 C 94.347656 124.152344 94.742188 124.363281 95.117188 124.613281 C 95.492188 124.863281 95.839844 125.148438 96.160156 125.46875 C 96.480469 125.785156 96.761719 126.132812 97.015625 126.507812 C 97.265625 126.882812 97.476562 127.277344 97.648438 127.695312 C 97.820312 128.113281 97.953125 128.539062 98.039062 128.984375 C 98.128906 129.425781 98.171875 129.871094 98.171875 130.324219 C 98.171875 130.773438 98.128906 131.21875 98.039062 131.664062 C 97.953125 132.105469 97.820312 132.535156 97.648438 132.949219 C 97.476562 133.367188 97.265625 133.761719 97.015625 134.136719 C 96.761719 134.511719 96.480469 134.859375 96.160156 135.179688 C 95.839844 135.496094 95.492188 135.78125 95.117188 136.03125 C 94.742188 136.28125 94.347656 136.496094 93.929688 136.667969 C 93.511719 136.839844 93.085938 136.96875 92.640625 137.058594 C 92.199219 137.144531 91.753906 137.191406 91.300781 137.191406 L 77.558594 137.191406 C 76.433594 137.191406 75.308594 137.132812 74.191406 137.023438 C 73.070312 136.914062 71.960938 136.75 70.855469 136.53125 C 69.753906 136.308594 68.660156 136.039062 67.585938 135.710938 C 66.507812 135.382812 65.449219 135.007812 64.410156 134.574219 C 63.371094 134.144531 62.355469 133.664062 61.363281 133.136719 C 60.371094 132.605469 59.40625 132.027344 58.46875 131.402344 C 57.535156 130.777344 56.632812 130.109375 55.761719 129.394531 C 54.894531 128.683594 54.058594 127.929688 53.265625 127.132812 C 52.46875 126.339844 51.714844 125.507812 51 124.636719 C 50.285156 123.769531 49.617188 122.867188 48.992188 121.929688 C 48.367188 120.996094 47.789062 120.03125 47.257812 119.039062 C 46.726562 118.050781 46.246094 117.035156 45.816406 115.996094 C 45.386719 114.957031 45.007812 113.898438 44.679688 112.824219 C 44.355469 111.746094 44.082031 110.65625 43.863281 109.554688 C 43.640625 108.453125 43.476562 107.339844 43.367188 106.222656 C 43.257812 105.101562 43.203125 103.980469 43.203125 102.855469 Z M 324.925781 398.125 L 22.585938 398.125 L 22.585938 164.65625 L 324.925781 164.65625 Z M 142.835938 102.855469 L 135.964844 102.855469 C 135.175781 102.855469 134.390625 102.816406 133.609375 102.742188 C 132.824219 102.664062 132.046875 102.546875 131.273438 102.394531 C 130.5 102.242188 129.738281 102.050781 128.984375 101.820312 C 128.230469 101.59375 127.488281 101.328125 126.761719 101.027344 C 126.035156 100.726562 125.324219 100.390625 124.628906 100.019531 C 123.933594 99.648438 123.257812 99.242188 122.601562 98.804688 C 121.949219 98.367188 121.316406 97.898438 120.707031 97.402344 C 120.097656 96.902344 119.515625 96.375 118.960938 95.816406 C 118.402344 95.261719 117.875 94.679688 117.375 94.070312 C 116.875 93.460938 116.40625 92.828125 115.96875 92.175781 C 115.53125 91.519531 115.125 90.847656 114.753906 90.152344 C 114.382812 89.457031 114.046875 88.746094 113.746094 88.019531 C 113.445312 87.292969 113.179688 86.550781 112.949219 85.800781 C 112.722656 85.046875 112.53125 84.285156 112.378906 83.511719 C 112.222656 82.738281 112.109375 81.960938 112.03125 81.179688 C 111.953125 80.394531 111.914062 79.609375 111.914062 78.824219 C 111.914062 78.035156 111.953125 77.25 112.03125 76.46875 C 112.109375 75.683594 112.222656 74.90625 112.378906 74.132812 C 112.53125 73.363281 112.722656 72.597656 112.949219 71.847656 C 113.179688 71.09375 113.445312 70.351562 113.746094 69.625 C 114.046875 68.898438 114.382812 68.1875 114.753906 67.492188 C 115.125 66.800781 115.53125 66.125 115.96875 65.46875 C 116.40625 64.816406 116.875 64.183594 117.375 63.574219 C 117.875 62.96875 118.402344 62.386719 118.960938 61.828125 C 119.515625 61.273438 120.097656 60.742188 120.707031 60.246094 C 121.316406 59.746094 121.949219 59.277344 122.601562 58.839844 C 123.257812 58.402344 123.933594 58 124.628906 57.628906 C 125.324219 57.257812 126.035156 56.921875 126.761719 56.617188 C 127.488281 56.316406 128.230469 56.050781 128.984375 55.824219 C 129.738281 55.597656 130.5 55.40625 131.273438 55.25 C 132.046875 55.097656 132.824219 54.980469 133.609375 54.90625 C 134.390625 54.828125 135.175781 54.789062 135.964844 54.789062 L 146.273438 54.789062 C 146.945312 54.792969 147.621094 54.828125 148.289062 54.894531 C 148.960938 54.960938 149.628906 55.0625 150.289062 55.195312 C 150.949219 55.328125 151.605469 55.492188 152.25 55.691406 C 152.894531 55.886719 153.527344 56.113281 154.152344 56.375 C 154.773438 56.632812 155.382812 56.921875 155.976562 57.238281 C 156.570312 57.558594 157.148438 57.90625 157.710938 58.28125 C 158.269531 58.65625 158.8125 59.054688 159.332031 59.484375 C 159.855469 59.910156 160.355469 60.363281 160.832031 60.839844 C 161.308594 61.316406 161.761719 61.816406 162.1875 62.335938 C 162.617188 62.859375 163.019531 63.398438 163.394531 63.957031 C 163.769531 64.519531 164.117188 65.097656 164.433594 65.691406 C 164.753906 66.285156 165.042969 66.894531 165.300781 67.515625 C 165.558594 68.136719 165.789062 68.769531 165.984375 69.417969 C 166.183594 70.0625 166.347656 70.714844 166.480469 71.375 C 166.613281 72.035156 166.714844 72.703125 166.78125 73.371094 C 166.847656 74.042969 166.882812 74.714844 166.886719 75.390625 C 166.886719 75.839844 166.84375 76.285156 166.753906 76.730469 C 166.664062 77.171875 166.535156 77.601562 166.363281 78.015625 C 166.191406 78.433594 165.976562 78.828125 165.726562 79.203125 C 165.476562 79.578125 165.191406 79.925781 164.875 80.246094 C 164.554688 80.5625 164.207031 80.847656 163.832031 81.097656 C 163.457031 81.347656 163.0625 81.5625 162.644531 81.734375 C 162.226562 81.90625 161.796875 82.035156 161.355469 82.125 C 160.914062 82.210938 160.464844 82.257812 160.015625 82.257812 C 159.5625 82.257812 159.117188 82.210938 158.675781 82.125 C 158.230469 82.035156 157.800781 81.90625 157.386719 81.734375 C 156.96875 81.5625 156.570312 81.347656 156.195312 81.097656 C 155.820312 80.847656 155.476562 80.5625 155.15625 80.246094 C 154.835938 79.925781 154.550781 79.578125 154.300781 79.203125 C 154.050781 78.828125 153.839844 78.433594 153.667969 78.015625 C 153.492188 77.601562 153.363281 77.171875 153.273438 76.730469 C 153.1875 76.285156 153.144531 75.839844 153.144531 75.390625 C 153.144531 74.9375 153.097656 74.492188 153.011719 74.050781 C 152.921875 73.609375 152.792969 73.179688 152.621094 72.761719 C 152.449219 72.34375 152.234375 71.949219 151.984375 71.574219 C 151.734375 71.199219 151.449219 70.851562 151.128906 70.535156 C 150.8125 70.214844 150.464844 69.929688 150.089844 69.679688 C 149.714844 69.429688 149.316406 69.21875 148.902344 69.046875 C 148.484375 68.871094 148.054688 68.742188 147.613281 68.65625 C 147.167969 68.566406 146.722656 68.523438 146.273438 68.523438 L 135.964844 68.523438 C 135.289062 68.523438 134.617188 68.589844 133.953125 68.71875 C 133.289062 68.851562 132.644531 69.046875 132.019531 69.308594 C 131.394531 69.566406 130.800781 69.882812 130.238281 70.257812 C 129.675781 70.632812 129.15625 71.0625 128.675781 71.539062 C 128.199219 72.019531 127.769531 72.539062 127.394531 73.101562 C 127.019531 73.664062 126.703125 74.257812 126.441406 74.882812 C 126.183594 75.507812 125.988281 76.148438 125.855469 76.8125 C 125.722656 77.476562 125.65625 78.144531 125.65625 78.824219 C 125.65625 79.5 125.722656 80.167969 125.855469 80.832031 C 125.988281 81.496094 126.183594 82.140625 126.441406 82.765625 C 126.703125 83.390625 127.019531 83.984375 127.394531 84.546875 C 127.769531 85.109375 128.199219 85.628906 128.675781 86.105469 C 129.15625 86.585938 129.675781 87.011719 130.238281 87.386719 C 130.800781 87.761719 131.394531 88.078125 132.019531 88.339844 C 132.644531 88.597656 133.289062 88.792969 133.953125 88.925781 C 134.617188 89.058594 135.289062 89.121094 135.964844 89.121094 L 142.835938 89.121094 C 143.625 89.121094 144.410156 89.160156 145.195312 89.238281 C 145.976562 89.316406 146.753906 89.429688 147.527344 89.585938 C 148.300781 89.738281 149.0625 89.929688 149.816406 90.15625 C 150.570312 90.386719 151.3125 90.652344 152.039062 90.953125 C 152.765625 91.253906 153.476562 91.589844 154.171875 91.960938 C 154.867188 92.332031 155.542969 92.734375 156.199219 93.171875 C 156.851562 93.609375 157.484375 94.078125 158.09375 94.578125 C 158.703125 95.078125 159.285156 95.605469 159.84375 96.160156 C 160.398438 96.71875 160.925781 97.300781 161.425781 97.910156 C 161.925781 98.519531 162.394531 99.148438 162.832031 99.804688 C 163.269531 100.457031 163.675781 101.132812 164.046875 101.828125 C 164.417969 102.519531 164.753906 103.230469 165.054688 103.957031 C 165.355469 104.6875 165.621094 105.425781 165.851562 106.179688 C 166.078125 106.933594 166.269531 107.695312 166.421875 108.46875 C 166.578125 109.238281 166.691406 110.015625 166.769531 110.800781 C 166.847656 111.582031 166.886719 112.367188 166.886719 113.15625 C 166.886719 113.941406 166.847656 114.726562 166.769531 115.511719 C 166.691406 116.296875 166.578125 117.074219 166.421875 117.84375 C 166.269531 118.617188 166.078125 119.378906 165.851562 120.132812 C 165.621094 120.886719 165.355469 121.625 165.054688 122.351562 C 164.753906 123.082031 164.417969 123.792969 164.046875 124.484375 C 163.675781 125.179688 163.269531 125.855469 162.832031 126.507812 C 162.394531 127.164062 161.925781 127.792969 161.425781 128.402344 C 160.925781 129.011719 160.398438 129.59375 159.84375 130.148438 C 159.285156 130.707031 158.703125 131.234375 158.09375 131.734375 C 157.484375 132.234375 156.851562 132.703125 156.199219 133.140625 C 155.542969 133.578125 154.867188 133.980469 154.171875 134.351562 C 153.476562 134.722656 152.765625 135.058594 152.039062 135.359375 C 151.3125 135.660156 150.570312 135.925781 149.816406 136.15625 C 149.0625 136.382812 148.300781 136.574219 147.527344 136.726562 C 146.753906 136.882812 145.976562 136.996094 145.195312 137.074219 C 144.410156 137.152344 143.625 137.191406 142.835938 137.191406 L 132.527344 137.191406 C 131.855469 137.1875 131.179688 137.152344 130.511719 137.085938 C 129.839844 137.015625 129.171875 136.917969 128.511719 136.785156 C 127.851562 136.652344 127.195312 136.484375 126.550781 136.289062 C 125.90625 136.09375 125.273438 135.863281 124.648438 135.605469 C 124.027344 135.347656 123.417969 135.058594 122.824219 134.738281 C 122.230469 134.421875 121.652344 134.074219 121.089844 133.699219 C 120.53125 133.324219 119.988281 132.921875 119.46875 132.496094 C 118.945312 132.066406 118.449219 131.613281 117.96875 131.136719 C 117.492188 130.660156 117.039062 130.164062 116.613281 129.640625 C 116.183594 129.121094 115.78125 128.582031 115.40625 128.019531 C 115.03125 127.460938 114.683594 126.882812 114.367188 126.289062 C 114.046875 125.695312 113.757812 125.085938 113.5 124.464844 C 113.242188 123.839844 113.011719 123.207031 112.816406 122.5625 C 112.617188 121.917969 112.453125 121.265625 112.320312 120.605469 C 112.1875 119.941406 112.085938 119.277344 112.019531 118.605469 C 111.953125 117.9375 111.917969 117.261719 111.914062 116.589844 C 111.914062 116.136719 111.960938 115.691406 112.046875 115.25 C 112.136719 114.808594 112.265625 114.378906 112.4375 113.960938 C 112.609375 113.546875 112.824219 113.148438 113.074219 112.773438 C 113.324219 112.398438 113.609375 112.054688 113.925781 111.734375 C 114.246094 111.414062 114.59375 111.128906 114.96875 110.878906 C 115.34375 110.628906 115.738281 110.417969 116.15625 110.246094 C 116.574219 110.074219 117.003906 109.941406 117.445312 109.855469 C 117.886719 109.765625 118.335938 109.722656 118.785156 109.722656 C 119.238281 109.722656 119.683594 109.765625 120.125 109.855469 C 120.570312 109.941406 121 110.074219 121.414062 110.246094 C 121.832031 110.417969 122.230469 110.628906 122.605469 110.878906 C 122.980469 111.128906 123.324219 111.414062 123.644531 111.734375 C 123.964844 112.054688 124.25 112.398438 124.5 112.773438 C 124.75 113.148438 124.960938 113.546875 125.132812 113.960938 C 125.308594 114.378906 125.4375 114.808594 125.527344 115.25 C 125.613281 115.691406 125.65625 116.136719 125.65625 116.589844 C 125.65625 117.039062 125.703125 117.488281 125.789062 117.929688 C 125.878906 118.371094 126.007812 118.800781 126.179688 119.21875 C 126.351562 119.632812 126.566406 120.03125 126.816406 120.40625 C 127.066406 120.777344 127.351562 121.125 127.671875 121.445312 C 127.988281 121.765625 128.335938 122.046875 128.710938 122.300781 C 129.085938 122.550781 129.484375 122.761719 129.898438 122.933594 C 130.316406 123.105469 130.746094 123.234375 131.1875 123.324219 C 131.632812 123.414062 132.078125 123.457031 132.527344 123.457031 L 142.835938 123.457031 C 143.511719 123.457031 144.183594 123.390625 144.847656 123.257812 C 145.511719 123.125 146.15625 122.929688 146.78125 122.671875 C 147.40625 122.414062 148 122.097656 148.5625 121.71875 C 149.125 121.34375 149.644531 120.917969 150.125 120.4375 C 150.601562 119.960938 151.03125 119.441406 151.40625 118.878906 C 151.78125 118.316406 152.097656 117.722656 152.359375 117.097656 C 152.617188 116.472656 152.8125 115.828125 152.945312 115.164062 C 153.078125 114.503906 153.144531 113.832031 153.144531 113.15625 C 153.144531 112.480469 153.078125 111.808594 152.945312 111.148438 C 152.8125 110.484375 152.617188 109.839844 152.359375 109.214844 C 152.097656 108.589844 151.78125 107.996094 151.40625 107.433594 C 151.03125 106.871094 150.601562 106.351562 150.125 105.871094 C 149.644531 105.394531 149.125 104.96875 148.5625 104.59375 C 148 104.214844 147.40625 103.898438 146.78125 103.640625 C 146.15625 103.382812 145.511719 103.1875 144.847656 103.054688 C 144.183594 102.921875 143.511719 102.855469 142.835938 102.855469 Z M 211.550781 102.855469 L 204.679688 102.855469 C 203.890625 102.855469 203.105469 102.816406 202.320312 102.742188 C 201.539062 102.664062 200.757812 102.546875 199.988281 102.394531 C 199.214844 102.242188 198.449219 102.050781 197.695312 101.820312 C 196.941406 101.59375 196.203125 101.328125 195.476562 101.027344 C 194.746094 100.726562 194.035156 100.390625 193.339844 100.019531 C 192.648438 99.648438 191.972656 99.242188 191.316406 98.804688 C 190.664062 98.367188 190.03125 97.898438 189.421875 97.402344 C 188.8125 96.902344 188.230469 96.375 187.671875 95.816406 C 187.117188 95.261719 186.585938 94.679688 186.085938 94.070312 C 185.589844 93.460938 185.121094 92.828125 184.683594 92.175781 C 184.242188 91.519531 183.839844 90.847656 183.46875 90.152344 C 183.097656 89.457031 182.761719 88.746094 182.460938 88.019531 C 182.15625 87.292969 181.894531 86.550781 181.664062 85.800781 C 181.433594 85.046875 181.246094 84.285156 181.089844 83.511719 C 180.9375 82.738281 180.820312 81.960938 180.746094 81.179688 C 180.667969 80.394531 180.628906 79.609375 180.628906 78.824219 C 180.628906 78.035156 180.667969 77.25 180.746094 76.46875 C 180.820312 75.683594 180.9375 74.90625 181.089844 74.132812 C 181.246094 73.363281 181.433594 72.597656 181.664062 71.847656 C 181.894531 71.09375 182.15625 70.351562 182.460938 69.625 C 182.761719 68.898438 183.097656 68.1875 183.46875 67.492188 C 183.839844 66.800781 184.242188 66.125 184.683594 65.46875 C 185.121094 64.816406 185.589844 64.183594 186.085938 63.574219 C 186.585938 62.96875 187.117188 62.386719 187.671875 61.828125 C 188.230469 61.273438 188.8125 60.742188 189.421875 60.246094 C 190.03125 59.746094 190.664062 59.277344 191.316406 58.839844 C 191.972656 58.402344 192.648438 58 193.339844 57.628906 C 194.035156 57.257812 194.746094 56.921875 195.476562 56.617188 C 196.203125 56.316406 196.941406 56.050781 197.695312 55.824219 C 198.449219 55.597656 199.214844 55.40625 199.988281 55.25 C 200.757812 55.097656 201.539062 54.980469 202.320312 54.90625 C 203.105469 54.828125 203.890625 54.789062 204.679688 54.789062 L 214.984375 54.789062 C 215.660156 54.792969 216.332031 54.828125 217.003906 54.894531 C 217.675781 54.960938 218.339844 55.0625 219.003906 55.195312 C 219.664062 55.328125 220.316406 55.492188 220.960938 55.691406 C 221.609375 55.886719 222.242188 56.113281 222.863281 56.375 C 223.488281 56.632812 224.097656 56.921875 224.691406 57.238281 C 225.285156 57.558594 225.863281 57.90625 226.421875 58.28125 C 226.984375 58.65625 227.527344 59.054688 228.046875 59.484375 C 228.566406 59.910156 229.066406 60.363281 229.542969 60.839844 C 230.019531 61.316406 230.472656 61.816406 230.902344 62.335938 C 231.332031 62.859375 231.730469 63.398438 232.105469 63.957031 C 232.480469 64.519531 232.828125 65.097656 233.148438 65.691406 C 233.464844 66.285156 233.753906 66.894531 234.015625 67.515625 C 234.273438 68.136719 234.5 68.769531 234.699219 69.417969 C 234.894531 70.0625 235.058594 70.714844 235.195312 71.375 C 235.328125 72.035156 235.425781 72.703125 235.496094 73.371094 C 235.5625 74.042969 235.597656 74.714844 235.597656 75.390625 C 235.597656 75.839844 235.554688 76.285156 235.46875 76.730469 C 235.378906 77.171875 235.25 77.601562 235.078125 78.015625 C 234.902344 78.433594 234.691406 78.828125 234.441406 79.203125 C 234.191406 79.578125 233.90625 79.925781 233.585938 80.246094 C 233.269531 80.5625 232.921875 80.847656 232.546875 81.097656 C 232.171875 81.347656 231.773438 81.5625 231.359375 81.734375 C 230.941406 81.90625 230.511719 82.035156 230.070312 82.125 C 229.625 82.210938 229.179688 82.257812 228.726562 82.257812 C 228.277344 82.257812 227.828125 82.210938 227.386719 82.125 C 226.945312 82.035156 226.515625 81.90625 226.097656 81.734375 C 225.683594 81.5625 225.285156 81.347656 224.910156 81.097656 C 224.535156 80.847656 224.1875 80.5625 223.871094 80.246094 C 223.550781 79.925781 223.265625 79.578125 223.015625 79.203125 C 222.765625 78.828125 222.550781 78.433594 222.378906 78.015625 C 222.207031 77.601562 222.078125 77.171875 221.988281 76.730469 C 221.902344 76.285156 221.855469 75.839844 221.855469 75.390625 C 221.855469 74.9375 221.8125 74.492188 221.726562 74.050781 C 221.636719 73.609375 221.507812 73.179688 221.332031 72.761719 C 221.160156 72.34375 220.949219 71.949219 220.699219 71.574219 C 220.449219 71.199219 220.164062 70.851562 219.84375 70.535156 C 219.523438 70.214844 219.179688 69.929688 218.804688 69.679688 C 218.429688 69.429688 218.03125 69.21875 217.613281 69.046875 C 217.199219 68.871094 216.769531 68.742188 216.324219 68.65625 C 215.882812 68.566406 215.4375 68.523438 214.984375 68.523438 L 204.679688 68.523438 C 204 68.523438 203.332031 68.589844 202.667969 68.71875 C 202.003906 68.851562 201.359375 69.046875 200.734375 69.308594 C 200.109375 69.566406 199.515625 69.882812 198.953125 70.257812 C 198.390625 70.632812 197.867188 71.0625 197.390625 71.539062 C 196.910156 72.019531 196.484375 72.539062 196.109375 73.101562 C 195.730469 73.664062 195.414062 74.257812 195.15625 74.882812 C 194.898438 75.507812 194.703125 76.148438 194.570312 76.8125 C 194.4375 77.476562 194.371094 78.144531 194.371094 78.824219 C 194.371094 79.5 194.4375 80.167969 194.570312 80.832031 C 194.703125 81.496094 194.898438 82.140625 195.15625 82.765625 C 195.414062 83.390625 195.730469 83.984375 196.109375 84.546875 C 196.484375 85.109375 196.910156 85.628906 197.390625 86.105469 C 197.867188 86.585938 198.390625 87.011719 198.953125 87.386719 C 199.515625 87.761719 200.109375 88.078125 200.734375 88.339844 C 201.359375 88.597656 202.003906 88.792969 202.667969 88.925781 C 203.332031 89.058594 204 89.121094 204.679688 89.121094 L 211.550781 89.121094 C 212.335938 89.121094 213.125 89.160156 213.90625 89.238281 C 214.691406 89.316406 215.46875 89.429688 216.242188 89.585938 C 217.015625 89.738281 217.777344 89.929688 218.53125 90.15625 C 219.285156 90.386719 220.027344 90.652344 220.753906 90.953125 C 221.480469 91.253906 222.191406 91.589844 222.886719 91.960938 C 223.582031 92.332031 224.257812 92.734375 224.910156 93.171875 C 225.566406 93.609375 226.199219 94.078125 226.808594 94.578125 C 227.414062 95.078125 228 95.605469 228.554688 96.160156 C 229.113281 96.71875 229.640625 97.300781 230.140625 97.910156 C 230.640625 98.519531 231.109375 99.148438 231.546875 99.804688 C 231.984375 100.457031 232.386719 101.132812 232.757812 101.828125 C 233.132812 102.519531 233.46875 103.230469 233.769531 103.957031 C 234.070312 104.6875 234.335938 105.425781 234.5625 106.179688 C 234.792969 106.933594 234.984375 107.695312 235.136719 108.46875 C 235.289062 109.238281 235.40625 110.015625 235.484375 110.800781 C 235.5625 111.582031 235.597656 112.367188 235.597656 113.15625 C 235.597656 113.941406 235.5625 114.726562 235.484375 115.511719 C 235.40625 116.296875 235.289062 117.074219 235.136719 117.84375 C 234.984375 118.617188 234.792969 119.378906 234.5625 120.132812 C 234.335938 120.886719 234.070312 121.625 233.769531 122.351562 C 233.46875 123.082031 233.132812 123.792969 232.757812 124.484375 C 232.386719 125.179688 231.984375 125.855469 231.546875 126.507812 C 231.109375 127.164062 230.640625 127.792969 230.140625 128.402344 C 229.640625 129.011719 229.113281 129.59375 228.554688 130.148438 C 228 130.707031 227.414062 131.234375 226.808594 131.734375 C 226.199219 132.234375 225.566406 132.703125 224.910156 133.140625 C 224.257812 133.578125 223.582031 133.980469 222.886719 134.351562 C 222.191406 134.722656 221.480469 135.058594 220.753906 135.359375 C 220.027344 135.660156 219.285156 135.925781 218.53125 136.15625 C 217.777344 136.382812 217.015625 136.574219 216.242188 136.726562 C 215.46875 136.882812 214.691406 136.996094 213.90625 137.074219 C 213.125 137.152344 212.335938 137.191406 211.550781 137.191406 L 201.242188 137.191406 C 200.566406 137.1875 199.894531 137.152344 199.222656 137.085938 C 198.554688 137.015625 197.886719 136.917969 197.226562 136.785156 C 196.5625 136.652344 195.910156 136.484375 195.265625 136.289062 C 194.621094 136.09375 193.984375 135.863281 193.363281 135.605469 C 192.742188 135.347656 192.132812 135.058594 191.539062 134.738281 C 190.941406 134.421875 190.363281 134.074219 189.804688 133.699219 C 189.242188 133.324219 188.703125 132.921875 188.179688 132.496094 C 187.660156 132.066406 187.160156 131.613281 186.683594 131.136719 C 186.207031 130.660156 185.753906 130.164062 185.324219 129.640625 C 184.898438 129.121094 184.496094 128.582031 184.121094 128.019531 C 183.746094 127.460938 183.398438 126.882812 183.082031 126.289062 C 182.761719 125.695312 182.472656 125.085938 182.214844 124.464844 C 181.953125 123.839844 181.726562 123.207031 181.53125 122.5625 C 181.332031 121.917969 181.167969 121.265625 181.035156 120.605469 C 180.902344 119.941406 180.800781 119.277344 180.734375 118.605469 C 180.664062 117.9375 180.628906 117.261719 180.628906 116.589844 C 180.628906 116.136719 180.671875 115.691406 180.761719 115.25 C 180.847656 114.808594 180.980469 114.378906 181.152344 113.960938 C 181.324219 113.546875 181.535156 113.148438 181.785156 112.773438 C 182.039062 112.398438 182.320312 112.054688 182.640625 111.734375 C 182.960938 111.414062 183.308594 111.128906 183.683594 110.878906 C 184.058594 110.628906 184.453125 110.417969 184.871094 110.246094 C 185.289062 110.074219 185.71875 109.941406 186.160156 109.855469 C 186.601562 109.765625 187.046875 109.722656 187.5 109.722656 C 187.949219 109.722656 188.398438 109.765625 188.839844 109.855469 C 189.28125 109.941406 189.710938 110.074219 190.128906 110.246094 C 190.546875 110.417969 190.941406 110.628906 191.316406 110.878906 C 191.691406 111.128906 192.039062 111.414062 192.359375 111.734375 C 192.679688 112.054688 192.960938 112.398438 193.214844 112.773438 C 193.464844 113.148438 193.675781 113.546875 193.847656 113.960938 C 194.019531 114.378906 194.152344 114.808594 194.238281 115.25 C 194.328125 115.691406 194.371094 116.136719 194.371094 116.589844 C 194.371094 117.039062 194.414062 117.488281 194.503906 117.929688 C 194.589844 118.371094 194.722656 118.800781 194.894531 119.21875 C 195.066406 119.632812 195.277344 120.03125 195.53125 120.40625 C 195.78125 120.777344 196.066406 121.125 196.382812 121.445312 C 196.703125 121.765625 197.050781 122.046875 197.425781 122.300781 C 197.800781 122.550781 198.195312 122.761719 198.613281 122.933594 C 199.03125 123.105469 199.460938 123.234375 199.902344 123.324219 C 200.34375 123.414062 200.792969 123.457031 201.242188 123.457031 L 211.550781 123.457031 C 212.226562 123.457031 212.898438 123.390625 213.558594 123.257812 C 214.222656 123.125 214.867188 122.929688 215.492188 122.671875 C 216.121094 122.414062 216.714844 122.097656 217.277344 121.71875 C 217.839844 121.34375 218.359375 120.917969 218.835938 120.4375 C 219.316406 119.960938 219.742188 119.441406 220.121094 118.878906 C 220.496094 118.316406 220.8125 117.722656 221.070312 117.097656 C 221.332031 116.472656 221.527344 115.828125 221.660156 115.164062 C 221.789062 114.503906 221.855469 113.832031 221.855469 113.15625 C 221.855469 112.480469 221.789062 111.808594 221.660156 111.148438 C 221.527344 110.484375 221.332031 109.839844 221.070312 109.214844 C 220.8125 108.589844 220.496094 107.996094 220.121094 107.433594 C 219.742188 106.871094 219.316406 106.351562 218.835938 105.871094 C 218.359375 105.394531 217.839844 104.96875 217.277344 104.59375 C 216.714844 104.214844 216.121094 103.898438 215.492188 103.640625 C 214.867188 103.382812 214.222656 103.1875 213.558594 103.054688 C 212.898438 102.921875 212.226562 102.855469 211.550781 102.855469 Z M 269.957031 89.121094 L 269.957031 50.738281 L 315.238281 95.988281 L 276.828125 95.988281 C 276.375 95.988281 275.929688 95.945312 275.488281 95.859375 C 275.042969 95.769531 274.613281 95.640625 274.199219 95.464844 C 273.78125 95.292969 273.386719 95.082031 273.011719 94.832031 C 272.636719 94.582031 272.289062 94.296875 271.96875 93.976562 C 271.648438 93.660156 271.363281 93.3125 271.113281 92.9375 C 270.863281 92.5625 270.652344 92.167969 270.480469 91.75 C 270.308594 91.332031 270.175781 90.90625 270.089844 90.460938 C 270 90.019531 269.957031 89.574219 269.957031 89.121094 Z M 352.414062 370.65625 L 338.667969 370.65625 L 338.667969 102.855469 C 338.664062 101.945312 338.488281 101.070312 338.144531 100.226562 C 337.796875 99.382812 337.308594 98.636719 336.675781 97.980469 L 267.964844 29.3125 C 267.308594 28.679688 266.558594 28.191406 265.714844 27.847656 C 264.871094 27.503906 263.996094 27.328125 263.085938 27.324219 L 50.074219 27.324219 L 50.074219 13.589844 L 352.414062 13.589844 Z M 352.414062 370.65625 " fill-opacity="1" fill-rule="nonzero"/></g></svg>