<svg xmlns="http://www.w3.org/2000/svg" xmlns:xlink="http://www.w3.org/1999/xlink" width="19.588" height="20.992" zoomAndPan="magnify" viewBox="0 0 375 374.999991" preserveAspectRatio="xMidYMid meet" version="1.0"><path fill="#ffffff" d="M 362.324219 12.675781 C 354.210938 4.5625 343.222656 -0.0546875 331.730469 0 L 158.652344 0 C 134.933594 0.0546875 115.441406 19.550781 115.382812 43.269531 L 115.382812 129.808594 C 115.382812 137.695312 121.921875 144.230469 129.808594 144.230469 C 137.695312 144.230469 144.230469 137.695312 144.230469 129.808594 L 144.230469 43.269531 C 144.230469 35.382812 150.765625 28.847656 158.652344 28.847656 L 331.730469 28.847656 C 339.617188 28.847656 346.152344 35.382812 346.152344 43.269531 L 346.152344 331.730469 C 346.152344 339.675781 339.617188 346.152344 331.730469 346.152344 L 158.652344 346.152344 C 150.765625 346.152344 144.230469 339.617188 144.230469 331.730469 L 144.230469 245.191406 C 144.230469 237.304688 137.695312 230.769531 129.808594 230.769531 C 121.921875 230.769531 115.382812 237.304688 115.382812 245.191406 L 115.382812 331.730469 C 115.441406 355.449219 134.933594 375 158.652344 375 L 331.730469 375 C 343.222656 375 354.210938 370.4375 362.324219 362.324219 C 370.4375 354.210938 374.945312 343.167969 375 331.730469 L 375 43.269531 C 374.945312 31.832031 370.4375 20.789062 362.324219 12.675781 " fill-opacity="1" fill-rule="nonzero"/><path fill="#ffffff" d="M 206.148438 234.996094 C 203.332031 237.699219 201.753906 241.472656 201.753906 245.363281 C 201.753906 253.304688 208.234375 259.785156 216.175781 259.785156 C 220.066406 259.785156 223.839844 258.207031 226.542969 255.390625 L 284.234375 197.699219 C 289.8125 192.121094 289.8125 182.878906 284.234375 177.300781 L 226.542969 119.609375 C 223.839844 117.019531 220.234375 115.554688 216.515625 115.554688 C 208.628906 115.554688 202.09375 122.089844 202.09375 129.976562 C 202.09375 133.695312 203.558594 137.300781 206.148438 140.003906 L 239.21875 173.078125 L 14.421875 173.078125 C 6.480469 173.078125 0 179.613281 0 187.5 C 0 195.386719 6.480469 201.921875 14.421875 201.921875 L 239.21875 201.921875 L 206.148438 234.996094 " fill-opacity="1" fill-rule="nonzero"/></svg>