<svg xmlns="http://www.w3.org/2000/svg" xmlns:xlink="http://www.w3.org/1999/xlink" zoomAndPan="magnify" viewBox="0 0 375 374.999991" width="19.588" height="20.992" preserveAspectRatio="xMidYMid meet" version="1.0"><path fill="#ffff" d="M 281.875 398.75 L 48.125 398.75 C 29.171875 398.75 13.75 383.328125 13.75 364.375 L 13.75 302.5 L 316.25 302.5 L 316.25 364.375 C 316.25 383.328125 300.828125 398.75 281.875 398.75 Z M 48.125 13.75 L 233.75 13.75 L 233.75 48.125 C 233.75 74.660156 255.339844 96.25 281.875 96.25 L 316.25 96.25 L 316.25 288.75 L 13.75 288.75 L 13.75 48.125 C 13.75 29.171875 29.171875 13.75 48.125 13.75 Z M 247.5 23.472656 L 306.527344 82.5 L 281.875 82.5 C 262.921875 82.5 247.5 67.078125 247.5 48.125 Z M 245.484375 2.015625 C 244.195312 0.726562 242.449219 0 240.625 0 L 48.125 0 C 21.589844 0 0 21.589844 0 48.125 L 0 364.375 C 0 390.910156 21.589844 412.5 48.125 412.5 L 281.875 412.5 C 308.410156 412.5 330 390.910156 330 364.375 L 330 89.375 C 330 87.550781 329.273438 85.804688 327.984375 84.515625 L 245.484375 2.015625 " fill-opacity="1" fill-rule="nonzero"/><path fill="#ffff" d="M 89.375 316.25 C 85.578125 316.25 82.5 319.328125 82.5 323.125 L 82.5 343.75 L 68.75 343.75 L 68.75 323.125 C 68.75 319.328125 65.671875 316.25 61.875 316.25 C 58.078125 316.25 55 319.328125 55 323.125 L 55 378.125 C 55 381.921875 58.078125 385 61.875 385 C 65.671875 385 68.75 381.921875 68.75 378.125 L 68.75 357.5 L 82.5 357.5 L 82.5 378.125 C 82.5 381.921875 85.578125 385 89.375 385 C 93.171875 385 96.25 381.921875 96.25 378.125 L 96.25 323.125 C 96.25 319.328125 93.171875 316.25 89.375 316.25 " fill-opacity="1" fill-rule="nonzero"/><path fill="#ffff" d="M 144.375 316.25 L 116.875 316.25 C 113.078125 316.25 110 319.328125 110 323.125 C 110 326.921875 113.078125 330 116.875 330 L 123.75 330 L 123.75 378.125 C 123.75 381.921875 126.828125 385 130.625 385 C 134.421875 385 137.5 381.921875 137.5 378.125 L 137.5 330 L 144.375 330 C 148.171875 330 151.25 326.921875 151.25 323.125 C 151.25 319.328125 148.171875 316.25 144.375 316.25 " fill-opacity="1" fill-rule="nonzero"/><path fill="#ffff" d="M 214.707031 316.433594 C 211.601562 315.703125 208.402344 317.199219 206.976562 320.050781 L 192.5 349 L 178.023438 320.050781 C 176.597656 317.199219 173.394531 315.703125 170.292969 316.433594 C 167.191406 317.167969 165 319.9375 165 323.125 L 165 378.125 C 165 381.921875 168.078125 385 171.875 385 C 175.671875 385 178.75 381.921875 178.75 378.125 L 178.75 352.25 L 186.351562 367.449219 C 187.515625 369.78125 189.894531 371.25 192.5 371.25 C 195.105469 371.25 197.484375 369.78125 198.648438 367.449219 L 206.25 352.25 L 206.25 378.125 C 206.25 381.921875 209.328125 385 213.125 385 C 216.921875 385 220 381.921875 220 378.125 L 220 323.125 C 220 319.9375 217.808594 317.167969 214.707031 316.433594 " fill-opacity="1" fill-rule="nonzero"/><path fill="#ffff" d="M 268.125 371.25 L 247.5 371.25 L 247.5 323.125 C 247.5 319.328125 244.421875 316.25 240.625 316.25 C 236.828125 316.25 233.75 319.328125 233.75 323.125 L 233.75 378.125 C 233.75 381.921875 236.828125 385 240.625 385 L 268.125 385 C 271.921875 385 275 381.921875 275 378.125 C 275 374.328125 271.921875 371.25 268.125 371.25 " fill-opacity="1" fill-rule="nonzero"/><path fill="#ffff" d="M 112.015625 211.109375 C 113.355469 212.453125 115.117188 213.125 116.875 213.125 C 118.632812 213.125 120.394531 212.453125 121.734375 211.109375 C 124.421875 208.425781 124.421875 204.074219 121.734375 201.390625 L 85.347656 165 L 121.734375 128.609375 C 124.421875 125.925781 124.421875 121.574219 121.734375 118.890625 C 119.050781 116.203125 114.699219 116.203125 112.015625 118.890625 L 70.765625 160.140625 C 68.078125 162.824219 68.078125 167.175781 70.765625 169.859375 L 112.015625 211.109375 " fill-opacity="1" fill-rule="nonzero"/><path fill="#ffff" d="M 208.265625 211.109375 C 209.605469 212.453125 211.367188 213.125 213.125 213.125 C 214.882812 213.125 216.644531 212.453125 217.984375 211.109375 L 259.234375 169.859375 C 261.921875 167.175781 261.921875 162.824219 259.234375 160.140625 L 217.984375 118.890625 C 215.300781 116.203125 210.949219 116.203125 208.265625 118.890625 C 205.578125 121.574219 205.578125 125.925781 208.265625 128.609375 L 244.652344 165 L 208.265625 201.390625 C 205.578125 204.074219 205.578125 208.425781 208.265625 211.109375 " fill-opacity="1" fill-rule="nonzero"/><path fill="#ffff" d="M 142.199219 233.398438 C 142.921875 233.636719 143.65625 233.753906 144.375 233.753906 C 147.253906 233.753906 149.9375 231.929688 150.898438 229.050781 L 192.148438 105.300781 C 193.347656 101.699219 191.402344 97.804688 187.800781 96.601562 C 184.195312 95.402344 180.304688 97.347656 179.101562 100.949219 L 137.851562 224.699219 C 136.652344 228.300781 138.597656 232.195312 142.199219 233.398438 " fill-opacity="1" fill-rule="nonzero"/></svg>